<?xml version="1.0" encoding="utf-8"?>
<!-- Generator: Adobe Illustrator 19.0.0, SVG Export Plug-In . SVG Version: 6.00 Build 0)  -->
<svg version="1.1" id="layer" xmlns="http://www.w3.org/2000/svg" xmlns:xlink="http://www.w3.org/1999/xlink" x="0px" y="0px"
	 viewBox="-153 -46 652 652" style="enable-background:new -153 -46 652 652;" xml:space="preserve">
<style type="text/css">
	.st0{clip-path:url(#SVGID_2_);fill:url(#SVGID_3_);}
	.st1{clip-path:url(#SVGID_5_);fill:url(#SVGID_6_);}
	.st2{clip-path:url(#SVGID_8_);fill:url(#SVGID_9_);}
	.st3{clip-path:url(#SVGID_11_);fill:url(#SVGID_12_);}
	.st4{clip-path:url(#SVGID_14_);fill:url(#SVGID_15_);}
	.st5{fill:#484847;}
</style>
<g>
	<defs>
		<path id="SVGID_1_" d="M-65.9,280.5v57.9h5.5c2.5-0.8,4.9-2.3,6.9-4.3l41.2-41.2c3.4-3.4,5.2-7.9,5.2-12.4H-65.9z"/>
	</defs>
	<clipPath id="SVGID_2_">
		<use xlink:href="#SVGID_1_"  style="overflow:visible;"/>
	</clipPath>
	
		<linearGradient id="SVGID_3_" gradientUnits="userSpaceOnUse" x1="-431.5113" y1="686.4849" x2="-425.8643" y2="686.4849" gradientTransform="matrix(29.7287 29.7287 29.7287 -29.7287 -7656.9097 33505.7422)">
		<stop  offset="0" style="stop-color:#B61412"/>
		<stop  offset="0.4985" style="stop-color:#E33121"/>
		<stop  offset="1" style="stop-color:#F9CDCE"/>
	</linearGradient>
	<polygon class="st0" points="-36.6,251.1 21.8,309.4 -36.6,367.8 -94.9,309.4 	"/>
</g>
<g>
	<defs>
		<path id="SVGID_4_" d="M-65.9,280.5h58.8c0-4.5-1.7-9-5.2-12.5l-41.2-41.2c-3.4-3.4-7.9-5.2-12.4-5.2V280.5z"/>
	</defs>
	<clipPath id="SVGID_5_">
		<use xlink:href="#SVGID_4_"  style="overflow:visible;"/>
	</clipPath>
	
		<linearGradient id="SVGID_6_" gradientUnits="userSpaceOnUse" x1="-432.7979" y1="689.2212" x2="-427.1508" y2="689.2212" gradientTransform="matrix(34.6296 34.6296 34.6296 -34.6296 -9044.2734 38978.2773)">
		<stop  offset="0" style="stop-color:#B61412"/>
		<stop  offset="0.4985" style="stop-color:#E33121"/>
		<stop  offset="1" style="stop-color:#F9CDCE"/>
	</linearGradient>
	<polygon class="st1" points="-36.6,192.3 22.2,251.1 -36.6,309.9 -95.3,251.1 	"/>
</g>
<g>
	<defs>
		<path id="SVGID_7_" d="M-124.3,280.5v4.1c0.7,3,2.3,6,4.7,8.3l41.2,41.2c2,2,4.4,3.4,6.9,4.3h5.6v-57.9H-124.3z"/>
	</defs>
	<clipPath id="SVGID_8_">
		<use xlink:href="#SVGID_7_"  style="overflow:visible;"/>
	</clipPath>
	
		<linearGradient id="SVGID_9_" gradientUnits="userSpaceOnUse" x1="-432.7979" y1="687.7026" x2="-427.1508" y2="687.7026" gradientTransform="matrix(34.6296 34.6296 34.6296 -34.6296 -9050.124 38984.1289)">
		<stop  offset="0" style="stop-color:#B61412"/>
		<stop  offset="0.4985" style="stop-color:#E33121"/>
		<stop  offset="1" style="stop-color:#F9CDCE"/>
	</linearGradient>
	<polygon class="st2" points="-95.1,251.3 -37,309.4 -95.1,367.5 -153.2,309.4 	"/>
</g>
<g>
	<defs>
		<path id="SVGID_10_" d="M-78.4,226.9l-41.2,41.2c-2.4,2.4-3.9,5.3-4.7,8.3v4.1h58.3v-58.8C-70.5,221.7-75,223.4-78.4,226.9"/>
	</defs>
	<clipPath id="SVGID_11_">
		<use xlink:href="#SVGID_10_"  style="overflow:visible;"/>
	</clipPath>
	
		<linearGradient id="SVGID_12_" gradientUnits="userSpaceOnUse" x1="-403.2856" y1="726.2875" x2="-397.6386" y2="726.2875" gradientTransform="matrix(-14.875 -14.875 -14.875 14.875 4787.208 -16473.6289)">
		<stop  offset="0" style="stop-color:#B61412"/>
		<stop  offset="0.4985" style="stop-color:#E33121"/>
		<stop  offset="1" style="stop-color:#F9CDCE"/>
	</linearGradient>
	<polygon class="st3" points="-95.1,309.6 -153.6,251.1 -95.1,192.6 -36.6,251.1 	"/>
</g>
<g>
	<defs>
		<polygon id="SVGID_13_" points="-101.8,280.5 -65.9,316.3 -30.1,280.5 -65.9,244.6 		"/>
	</defs>
	<clipPath id="SVGID_14_">
		<use xlink:href="#SVGID_13_"  style="overflow:visible;"/>
	</clipPath>
	
		<linearGradient id="SVGID_15_" gradientUnits="userSpaceOnUse" x1="-421.3702" y1="688.4523" x2="-415.7231" y2="688.4523" gradientTransform="matrix(0 61.1873 61.1873 0 -42190.4648 25922.1309)">
		<stop  offset="0" style="stop-color:#B61412"/>
		<stop  offset="0.4985" style="stop-color:#E33121"/>
		<stop  offset="1" style="stop-color:#F9CDCE"/>
	</linearGradient>
	<rect x="-101.8" y="244.6" class="st4" width="71.7" height="71.7"/>
</g>
<path class="st5" d="M35.8,279H45c5.5,0,10.4-1.2,10.4-8s-4.9-8-10.4-8h-9.2V279z M24.1,253.8h24.2c13.4,0,18.6,8.5,18.6,17.2
	c0,8.7-5.2,17.2-18.6,17.2H35.8v19.2H24.1V253.8z"/>
<path class="st5" d="M85.4,300.4c7.3,0,9.5-6.2,9.5-12.4c0-6.2-2.2-12.5-9.5-12.5c-7.2,0-9.4,6.2-9.4,12.5
	C76,294.2,78.2,300.4,85.4,300.4 M85.4,267.5c12.2,0,20.1,8.1,20.1,20.5c0,12.3-7.9,20.4-20.1,20.4c-12.2,0-20.1-8.1-20.1-20.4
	C65.4,275.6,73.3,267.5,85.4,267.5"/>
<polygon class="st5" points="152.2,307.4 141.2,307.4 134.3,281.3 134.1,281.3 127.5,307.4 116.5,307.4 104.1,268.6 115.4,268.6 
	122.6,294.9 122.7,294.9 129.2,268.6 139.5,268.6 146.1,294.9 146.3,294.9 153.4,268.6 164.4,268.6 "/>
<path class="st5" d="M191.2,283.8c-1-5.4-3.3-8.3-8.5-8.3c-6.8,0-8.7,5.3-8.9,8.3H191.2z M173.9,290.6c0.3,6.8,3.6,9.8,9.5,9.8
	c4.3,0,7.7-2.6,8.4-5h9.4c-3,9.2-9.4,13.1-18.2,13.1c-12.3,0-19.8-8.4-19.8-20.4c0-11.6,8-20.5,19.8-20.5
	c13.2,0,19.6,11.1,18.9,23.1H173.9z"/>
<path class="st5" d="M204.4,268.6h10.1v7.2h0.2c1.9-4.9,7.2-8.3,12.4-8.3c0.7,0,1.7,0.2,2.3,0.4v9.9c-1-0.2-2.6-0.4-3.8-0.4
	c-7.8,0-10.5,5.6-10.5,12.5v17.5h-10.7V268.6z"/>
<path class="st5" d="M259.6,288.1c0-6.2-2.5-12.6-9.3-12.6c-7,0-9.2,6.2-9.2,12.6s2.4,12.3,9.3,12.3
	C257.3,300.4,259.6,294.4,259.6,288.1 M230.7,268.6h10.1v5h0.2c2.6-4.1,6.8-6,11.6-6c12.2,0,17.7,9.8,17.7,20.9
	c0,10.4-5.7,20.1-17.1,20.1c-4.7,0-9.1-2-11.6-5.9h-0.2v18.5h-10.7V268.6z"/>
<path class="st5" d="M272.8,268.6H283v7.2h0.2c1.9-4.9,7.2-8.3,12.4-8.3c0.7,0,1.7,0.2,2.3,0.4v9.9c-1-0.2-2.6-0.4-3.8-0.4
	c-7.8,0-10.5,5.6-10.5,12.5v17.5h-10.7V268.6z"/>
<path class="st5" d="M316.8,300.4c7.3,0,9.5-6.2,9.5-12.4c0-6.2-2.2-12.5-9.5-12.5c-7.2,0-9.4,6.2-9.4,12.5
	C307.5,294.2,309.6,300.4,316.8,300.4 M316.8,267.5c12.2,0,20.1,8.1,20.1,20.5c0,12.3-7.9,20.4-20.1,20.4
	c-12.2,0-20.1-8.1-20.1-20.4C296.8,275.6,304.7,267.5,316.8,267.5"/>
<path class="st5" d="M351.5,262.6h-10.7v-8.8h10.7V262.6z M334.3,312c0.7,0.2,1.4,0.3,2.3,0.3c2.2,0,4.1-0.5,4.1-3.5v-40.3h10.7
	v40.8c0,8-2.9,11.7-13.7,11.7c-1.1,0-2.3-0.2-3.5-0.3V312z"/>
<path class="st5" d="M382.8,283.8c-1-5.4-3.3-8.3-8.5-8.3c-6.8,0-8.7,5.3-8.9,8.3H382.8z M365.5,290.6c0.3,6.8,3.6,9.8,9.5,9.8
	c4.3,0,7.7-2.6,8.4-5h9.4c-3,9.2-9.4,13.1-18.2,13.1c-12.3,0-19.8-8.4-19.8-20.4c0-11.6,8-20.5,19.8-20.5
	c13.2,0,19.6,11.1,18.9,23.1H365.5z"/>
<path class="st5" d="M422.2,282.2c-0.7-4.4-3.5-6.7-7.9-6.7c-6.8,0-9.1,6.9-9.1,12.6c0,5.6,2.2,12.2,8.9,12.2c5,0,7.8-3.2,8.5-7.9
	h10.3c-1.4,10.3-8.5,15.9-18.7,15.9c-11.7,0-19.6-8.3-19.6-19.9c0-12.1,7.2-21,19.8-21c9.2,0,17.6,4.8,18.3,14.7H422.2z"/>
<path class="st5" d="M448.3,268.6h7.8v7.1h-7.8V295c0,3.6,0.9,4.5,4.5,4.5c1.1,0,2.2-0.1,3.3-0.3v8.3c-1.8,0.3-4.1,0.4-6.2,0.4
	c-6.5,0-12.3-1.5-12.3-9.2v-22.9h-6.5v-7.1h6.5v-11.6h10.7V268.6z"/>
<path class="st5" d="M466.6,263.2h0.9c1,0,1.8-0.3,1.8-1.1c0-0.7-0.5-1.2-1.6-1.2l-1,0.1V263.2z M466.6,267.5h-1.8v-7.8
	c0.7-0.1,1.7-0.2,3-0.2c1.5,0,2.1,0.2,2.6,0.6c0.5,0.3,0.8,0.9,0.8,1.7c0,0.9-0.7,1.6-1.6,1.8v0.1c0.8,0.2,1.1,0.9,1.4,1.9
	c0.2,1.2,0.4,1.6,0.6,1.9h-1.9c-0.2-0.3-0.4-0.9-0.6-1.9c-0.1-0.8-0.6-1.2-1.6-1.2h-0.9V267.5z M461.8,263.5c0,3.5,2.6,6.2,6.1,6.2
	c3.4,0,5.9-2.7,5.9-6.2c0-3.5-2.6-6.2-6-6.2C464.4,257.3,461.8,260.1,461.8,263.5 M475.7,263.5c0,4.4-3.5,7.8-7.9,7.8
	c-4.4,0-8-3.5-8-7.8c0-4.3,3.6-7.8,8-7.8C472.3,255.8,475.7,259.2,475.7,263.5"/>
</svg>
